<svg xmlns="http://www.w3.org/2000/svg" xmlns:xlink="http://www.w3.org/1999/xlink" width="20" height="20" viewBox="0 0 20 20"><defs><style>.a{fill:#fff;}.b{fill:#5990f0;}.c{clip-path:url(#a);}.d,.e{stroke:none;}.e{fill:#fff;}</style><clipPath id="a"><rect class="a" width="7.292" height="10"/></clipPath></defs><g transform="translate(-93 -352)"><g class="b" transform="translate(93 352)"><path class="d" d="M 10 19.5 C 4.761680126190186 19.5 0.5 15.23832035064697 0.5 10 C 0.5 4.761680126190186 4.761680126190186 0.5 10 0.5 C 15.23832035064697 0.5 19.5 4.761680126190186 19.5 10 C 19.5 15.23832035064697 15.23832035064697 19.5 10 19.5 Z"/><path class="e" d="M 10 1 C 5.037380218505859 1 1 5.037380218505859 1 10 C 1 14.96261978149414 5.037380218505859 19 10 19 C 14.96261978149414 19 19 14.96261978149414 19 10 C 19 5.037380218505859 14.96261978149414 1 10 1 M 10 0 C 15.52285003662109 0 20 4.477149963378906 20 10 C 20 15.52285003662109 15.52285003662109 20 10 20 C 4.477149963378906 20 0 15.52285003662109 0 10 C 0 4.477149963378906 4.477149963378906 0 10 0 Z"/></g><g transform="translate(100 357.5)"><g class="c"><path class="a" d="M4.266,0C4.19,0,4.115.007,4.04.012H1.367V.017H0V10H1.535V5.44H4.029a1.507,1.507,0,0,0,.237.009A2.887,2.887,0,0,0,7.292,2.724,2.887,2.887,0,0,0,4.266,0M4.029,4.036H1.535V1.4H4.029a1.448,1.448,0,0,1,1.4,1.305,1.467,1.467,0,0,1-1.4,1.327" transform="translate(0 -0.001)"/></g></g></g></svg>