<svg xmlns="http://www.w3.org/2000/svg" xmlns:xlink="http://www.w3.org/1999/xlink" width="20" height="20" viewBox="0 0 20 20"><defs><style>.a,.d{fill:#fff;}.b{fill:#d66581;}.c{clip-path:url(#a);}.d{stroke:rgba(0,0,0,0);stroke-miterlimit:10;}.e,.f{stroke:none;}.f{fill:#fff;}</style><clipPath id="a"><rect class="a" width="10.667" height="8.947"/></clipPath></defs><g transform="translate(-93 -352)"><g class="b" transform="translate(93 352)"><path class="e" d="M 10 19.5 C 4.761680126190186 19.5 0.5 15.23832035064697 0.5 10 C 0.5 4.761680126190186 4.761680126190186 0.5 10 0.5 C 15.23832035064697 0.5 19.5 4.761680126190186 19.5 10 C 19.5 15.23832035064697 15.23832035064697 19.5 10 19.5 Z"/><path class="f" d="M 10 1 C 5.037380218505859 1 1 5.037380218505859 1 10 C 1 14.96261978149414 5.037380218505859 19 10 19 C 14.96261978149414 19 19 14.96261978149414 19 10 C 19 5.037380218505859 14.96261978149414 1 10 1 M 10 0 C 15.52285003662109 0 20 4.477149963378906 20 10 C 20 15.52285003662109 15.52285003662109 20 10 20 C 4.477149963378906 20 0 15.52285003662109 0 10 C 0 4.477149963378906 4.477149963378906 0 10 0 Z"/></g><g transform="translate(97.667 357.526)"><path class="a" d="M25.288,0V8.947h1.033V0Z" transform="translate(-15.655 0)"/><g transform="translate(0 0)"><g class="c"><path class="d" d="M6.193,8.946H1.032A1.033,1.033,0,0,1,0,7.914V1.032A1.033,1.033,0,0,1,1.032,0H6.193A1.033,1.033,0,0,1,7.225,1.032V7.914A1.033,1.033,0,0,1,6.193,8.946ZM2.14,5.16,3.611,7.57,5.083,5.16H2.14ZM3.613,1.376,2.14,3.785H5.085Z" transform="translate(1.721 0.002)"/><rect class="a" width="1.032" height="8.946"/></g></g></g></g></svg>