<svg xmlns="http://www.w3.org/2000/svg" width="20" height="20" viewBox="0 0 20 20"><defs><style>.a{fill:#58cb6a;}.b{fill:#fff;}.c,.d{stroke:none;}.d{fill:#fff;}</style></defs><g transform="translate(-93 -352)"><g class="a" transform="translate(93 352)"><path class="c" d="M 10 19.5 C 4.761680126190186 19.5 0.5 15.23832035064697 0.5 10 C 0.5 4.761680126190186 4.761680126190186 0.5 10 0.5 C 15.23832035064697 0.5 19.5 4.761680126190186 19.5 10 C 19.5 15.23832035064697 15.23832035064697 19.5 10 19.5 Z"/><path class="d" d="M 10 1 C 5.037380218505859 1 1 5.037380218505859 1 10 C 1 14.96261978149414 5.037380218505859 19 10 19 C 14.96261978149414 19 19 14.96261978149414 19 10 C 19 5.037380218505859 14.96261978149414 1 10 1 M 10 0 C 15.52285003662109 0 20 4.477149963378906 20 10 C 20 15.52285003662109 15.52285003662109 20 10 20 C 4.477149963378906 20 0 15.52285003662109 0 10 C 0 4.477149963378906 4.477149963378906 0 10 0 Z"/></g><g transform="translate(99 357)"><path class="b" d="M.132,0V3.472h.893V.893H7.1L5.156,1.936V8.063L7.1,9.107H1.025V6.452H.132V10h8.25V0Z" transform="translate(-0.119)"/><path class="b" d="M1.763,31.993H0v1.083H1.763V34.5L4.41,32.534,1.763,30.571Z" transform="translate(0 -27.534)"/></g></g></svg>