<svg xmlns="http://www.w3.org/2000/svg" xmlns:xlink="http://www.w3.org/1999/xlink" width="20" height="20" viewBox="0 0 20 20"><defs><style>.a{fill:#fff;}.b{fill:#5990f0;}.c{clip-path:url(#a);}.d,.e{stroke:none;}.e{fill:#fff;}</style><clipPath id="a"><rect class="a" width="10" height="10"/></clipPath></defs><g transform="translate(-93 -352)"><g class="b" transform="translate(93 352)"><path class="d" d="M 10 19.5 C 4.761680126190186 19.5 0.5 15.23832035064697 0.5 10 C 0.5 4.761680126190186 4.761680126190186 0.5 10 0.5 C 15.23832035064697 0.5 19.5 4.761680126190186 19.5 10 C 19.5 15.23832035064697 15.23832035064697 19.5 10 19.5 Z"/><path class="e" d="M 10 1 C 5.037380218505859 1 1 5.037380218505859 1 10 C 1 14.96261978149414 5.037380218505859 19 10 19 C 14.96261978149414 19 19 14.96261978149414 19 10 C 19 5.037380218505859 14.96261978149414 1 10 1 M 10 0 C 15.52285003662109 0 20 4.477149963378906 20 10 C 20 15.52285003662109 15.52285003662109 20 10 20 C 4.477149963378906 20 0 15.52285003662109 0 10 C 0 4.477149963378906 4.477149963378906 0 10 0 Z"/></g><g transform="translate(98 357)"><g class="c"><path class="a" d="M1,10.973H1.01a.368.368,0,0,0,.36-.376L1.328,8.9l.378-.3s-.179,1.388-.2,1.853c0,.111.011.446.011.446.109-.047.177-.068.3-.108L3.575,10.2l-.346-.056a.7.7,0,0,1-.568-.491L2.369,8.182l.64,1.4a.368.368,0,0,0,.277.211l1.455.235a.367.367,0,1,0,.118-.725L3.6,9.1,3.02,7.832l.761.935.074-.691a.548.548,0,0,0-.487-.6c-.664-.071-1.022-.106-1.121-.1a.433.433,0,0,0-.267.077L.725,8.441a.367.367,0,0,0-.139.3l.046,1.877A.368.368,0,0,0,1,10.973" transform="translate(-0.439 -5.528)"/><path class="a" d="M5.78,28.083l.137-1.3a.437.437,0,0,0,0-.1L5.822,26l-.392.132a1,1,0,0,0-.419.273l.047.334-.1.953a1,1,0,0,0,.823.388" transform="translate(-3.718 -19.503)"/><path class="a" d="M10.7,26.551l.109-1a.424.424,0,0,0-.007-.137l-.21-.969-.819.276.175.806-.142,1.3Z" transform="translate(-7.326 -18.334)"/><path class="a" d="M8.361,0a.811.811,0,1,1-.814.811A.812.812,0,0,1,8.361,0" transform="translate(-5.66)"/><path class="a" d="M9.85,15.383a.22.22,0,0,0-.2-.033L2.442,17.566a1.378,1.378,0,0,1-.851-2.622l8.188-2.756a.324.324,0,1,0-.208-.613L5.019,13.108a.723.723,0,0,1-.774.415l-.31-.05-2.553.859A2.022,2.022,0,0,0,1.5,18.2l-1.176.361a.054.054,0,0,0,.016.106H9.829a.107.107,0,0,0,.108-.107V16.334l0-.774a.22.22,0,0,0-.089-.177" transform="translate(0 -8.669)"/></g></g></g></svg>