<svg xmlns="http://www.w3.org/2000/svg" width="20" height="20" viewBox="0 0 20 20"><defs><style>.a{fill:#58cb6a;}.b{fill:#fff;}.c,.d{stroke:none;}.d{fill:#fff;}</style></defs><g transform="translate(-93 -352)"><g class="a" transform="translate(93 352)"><path class="c" d="M 10 19.5 C 4.761680126190186 19.5 0.5 15.23832035064697 0.5 10 C 0.5 4.761680126190186 4.761680126190186 0.5 10 0.5 C 15.23832035064697 0.5 19.5 4.761680126190186 19.5 10 C 19.5 15.23832035064697 15.23832035064697 19.5 10 19.5 Z"/><path class="d" d="M 10 1 C 5.037380218505859 1 1 5.037380218505859 1 10 C 1 14.96261978149414 5.037380218505859 19 10 19 C 14.96261978149414 19 19 14.96261978149414 19 10 C 19 5.037380218505859 14.96261978149414 1 10 1 M 10 0 C 15.52285003662109 0 20 4.477149963378906 20 10 C 20 15.52285003662109 15.52285003662109 20 10 20 C 4.477149963378906 20 0 15.52285003662109 0 10 C 0 4.477149963378906 4.477149963378906 0 10 0 Z"/></g><g transform="translate(-11.707 18)"><path class="b" d="M4.016,9.474l.824-1.1.867.845H6.758V7.955h-.6l-1.665-1.6H2.181L1,8.086v.032c-.135.423-.059.735.273.907s.665.023.979-.4L2.91,7.612h.237c-.463.756-.738,1.228-.833,1.422a.928.928,0,0,0,0,.845l.015.03.021.023.076.087-.279.706H.746a.73.73,0,0,0-.678.441.7.7,0,0,0,.676.966H2.6a.544.544,0,0,0,.448-.264l.423-.664q1.657,1.851,1.9,2.1a.533.533,0,0,0,.82-.675Z" transform="translate(111 335.533)"/><path class="b" d="M.81,19.905a.317.317,0,0,0-.317.317v.311a.317.317,0,1,0,.634,0v-.311a.317.317,0,0,0-.317-.317" transform="translate(110.731 328.143)"/><path class="b" d="M10.286,3.917A1.015,1.015,0,1,0,9.271,2.9a1.014,1.014,0,0,0,1.015,1.015" transform="translate(105.943 337.97)"/><path class="b" d="M6.418,0h-4.7A1.249,1.249,0,0,0,.464,1.249v5.3a.317.317,0,0,0,.634,0v-5.3A.634.634,0,0,1,1.732.615H6.409a.634.634,0,0,1,.634.634V4.487h0v1.43h-.01V9.675a.317.317,0,0,0,.634,0V1.249A1.249,1.249,0,0,0,6.418,0" transform="translate(110.747 339)"/></g></g></svg>