<svg xmlns="http://www.w3.org/2000/svg" width="20" height="20" viewBox="0 0 20 20"><defs><style>.a{fill:#58cb6a;}.b{fill:#fff;}.c,.d{stroke:none;}.d{fill:#fff;}</style></defs><g transform="translate(-93 -352)"><g class="a" transform="translate(93 352)"><path class="c" d="M 10 19.5 C 4.761680126190186 19.5 0.5 15.23832035064697 0.5 10 C 0.5 4.761680126190186 4.761680126190186 0.5 10 0.5 C 15.23832035064697 0.5 19.5 4.761680126190186 19.5 10 C 19.5 15.23832035064697 15.23832035064697 19.5 10 19.5 Z"/><path class="d" d="M 10 1 C 5.037380218505859 1 1 5.037380218505859 1 10 C 1 14.96261978149414 5.037380218505859 19 10 19 C 14.96261978149414 19 19 14.96261978149414 19 10 C 19 5.037380218505859 14.96261978149414 1 10 1 M 10 0 C 15.52285003662109 0 20 4.477149963378906 20 10 C 20 15.52285003662109 15.52285003662109 20 10 20 C 4.477149963378906 20 0 15.52285003662109 0 10 C 0 4.477149963378906 4.477149963378906 0 10 0 Z"/></g><g transform="translate(97 357.328)"><path class="b" d="M35.466,0V3.244H36.3V.834h5.281l-2.749.975V7.534l2.749.975H36.3V6.029h-.834V9.344h7.708V0Z" transform="translate(-32.175)"/><path class="b" d="M0,32.4l2.473,1.835V32.91H4.12V31.9H2.473V30.57Z" transform="translate(0 -27.733)"/></g></g></svg>