<svg xmlns="http://www.w3.org/2000/svg" xmlns:xlink="http://www.w3.org/1999/xlink" width="20" height="20" viewBox="0 0 20 20"><defs><style>.a{fill:#fff;}.b{fill:#e5a96b;stroke:#fff;}.c{clip-path:url(#a);}.d{stroke:none;}.e{fill:none;}</style><clipPath id="a"><rect class="a" width="10.667" height="10.667"/></clipPath></defs><g transform="translate(-72 -269)"><g class="b" transform="translate(72 269)"><circle class="d" cx="10" cy="10" r="10"/><circle class="e" cx="10" cy="10" r="9.5"/></g><g transform="translate(76.667 273.667)"><g class="c"><path class="a" d="M9.52,8.531H7.611a1.148,1.148,0,0,0-.811.336L2.553,13.115H1.117a1.146,1.146,0,0,0,0,2.292h1.91a1.149,1.149,0,0,0,.811-.335l4.248-4.248H9.521a1.146,1.146,0,0,0,0-2.292Z" transform="translate(0 -4.739)"/><path class="a" d="M6.811,1.117A1.147,1.147,0,0,0,9.1,1.175c0-.019,0-.039,0-.058a1.147,1.147,0,0,0-2.293,0" transform="translate(-3.783 0)"/><path class="a" d="M9.1,7.576a.765.765,0,0,0-.764-.764H7.575a.765.765,0,0,0-.764.764V10.6L9.1,8.313V7.576Z" transform="translate(-3.784 -3.784)"/></g></g></g></svg>