<svg xmlns="http://www.w3.org/2000/svg" xmlns:xlink="http://www.w3.org/1999/xlink" width="20" height="20" viewBox="0 0 20 20"><defs><style>.a{fill:#fff;}.b{fill:#74ba7c;stroke:#fff;}.c{clip-path:url(#a);}.d{stroke:none;}.e{fill:none;}</style><clipPath id="a"><rect class="a" width="10.667" height="9.333"/></clipPath></defs><g transform="translate(-10 -269)"><g class="b" transform="translate(10 269)"><circle class="d" cx="10" cy="10" r="10"/><circle class="e" cx="10" cy="10" r="9.5"/></g><g transform="translate(14.667 274.333)"><g class="c"><path class="a" d="M3.573,0A1.173,1.173,0,1,1,2.4,1.173,1.173,1.173,0,0,1,3.573,0" transform="translate(-1.76)"/><path class="a" d="M2.56,10H1.12A1.133,1.133,0,0,0,0,11.147v2.587a.708.708,0,0,0,.613.587v1.653a.706.706,0,0,0,.693.693h.267a.947.947,0,0,0,.267-.053.789.789,0,0,0,.267.053h.267a.706.706,0,0,0,.693-.693V14.32a.709.709,0,0,0,.613-.64V11.147A1.188,1.188,0,0,0,2.56,10" transform="translate(0 -7.333)"/><path class="a" d="M28.573,2.347a1.184,1.184,0,0,0,1.173-1.173,1.173,1.173,0,1,0-2.347,0,1.2,1.2,0,0,0,1.173,1.173" transform="translate(-20.093)"/><path class="a" d="M28.061,13.867a.5.5,0,0,0-.053-.213l-.96-3.173a.651.651,0,0,0-.587-.48H25.368a.624.624,0,0,0-.587.427c0,.027-.027.027-.027.053l-.987,3.227c0,.027,0,.027-.027.053a.651.651,0,0,0,.08.507.622.622,0,0,0,.453.267h.56l.133,1.547v.053a.594.594,0,0,0,.56.507h.64a.682.682,0,0,0,.56-.64l.133-1.493h.56a.6.6,0,0,0,.587-.613c.053,0,.053-.027.053-.027" transform="translate(-17.394 -7.333)"/><path class="a" d="M18.3,5.047v6.267a.331.331,0,0,0,.347.32.324.324,0,0,0,.32-.32V5.047a.334.334,0,1,0-.667,0" transform="translate(-13.42 -3.447)"/></g></g></g></svg>